# xmcd
#
# Track frame offsets:
#	150
#	25537
#	53385
#	77025
#	98325
#	117717
#	148155
#	174370
#	202435
#	225890
#	236345
#	251390
#
# Disc length: 3734 seconds
#
# Revision: 1
# Processed by: cddbd v1.5.1PL0 Copyright (c) Steve Scherf et al.
# Submitted via: CDex 1.50Beta5
#
DISCID=8d0e940c
DTITLE=大井和郎 - リスト パガニーニ・エチュード
DYEAR=1900
DGENRE=Classical
TTITLE0=初版<パガニーニによる超絶技巧練習曲集>1.トレモロ
TTITLE1=2.オクターヴ
TTITLE2=3.ラ・カンパネッラ
TTITLE3=4.アルペッジョ
TTITLE4=5.狩り
TTITLE5=6.主題と変奏
TTITLE6=改訂版<パガニーニ大練習曲>1.トレモロ
TTITLE7=2.オクターヴ
TTITLE8=3.ラ・カンパネッラ
TTITLE9=4.アルペッジョ
TTITLE10=5.狩り
TTITLE11=6.主題と変奏
EXTD=
EXTT0=
EXTT1=
EXTT2=
EXTT3=
EXTT4=
EXTT5=
EXTT6=
EXTT7=
EXTT8=
EXTT9=
EXTT10=
EXTT11=
PLAYORDER=
